# xmcd
#
# Track frame offsets: 
#        150
#        2151
#        15701
#        18470
#        39205
#        58402
#        75006
#        98172
#        123088
#        156525
#        172646
#        188526
#        216958
#
# Disc length: 3572 seconds
#
# Revision: 0
# Processed by: cddbd v1.5.2PL0 Copyright (c) Steve Scherf et al.
# Submitted via: ExactAudioCopy v0.99pb5
#
DISCID=920df20d
DTITLE=Eric Bibb, Staffan Astner - Troubadour Live
DYEAR=2011
DGENRE=Blues
TTITLE0=Katalin's Introduction
TTITLE1=The Cape
TTITLE2=Introducing Staffan Astner
TTITLE3=New Home
TTITLE4=Troubadour
TTITLE5=Shavin' Talk
TTITLE6=Walkin' Blues Again
TTITLE7=Tell Riley
TTITLE8=Connected
TTITLE9=New World Comin' Through
TTITLE10=Thanks For The Joy
TTITLE11=For You
TTITLE12=People Get Ready - Get Onboard
EXTD=
EXTT0=
EXTT1=
EXTT2=
EXTT3=
EXTT4=
EXTT5=
EXTT6=
EXTT7=
EXTT8=
EXTT9=
EXTT10=
EXTT11=
EXTT12=
PLAYORDER=
